
<svg width="156px" height="45px" viewBox="0 0 156 45" version="1.1" xmlns="http://www.w3.org/2000/svg" xmlns:xlink="http://www.w3.org/1999/xlink">
    <!-- Generator: Sketch 47 (45396) - http://www.bohemiancoding.com/sketch -->
    <desc>Created with Sketch.</desc>
    <defs></defs>
    <g id="Page-1" stroke="none" stroke-width="1" fill="none" fill-rule="evenodd">
        <g id="Large-Devices-(-≥-1200px-)" transform="translate(-643.000000, -106.000000)">
            <g id="Logo" transform="translate(556.000000, 106.000000)">
                <g id="london-eye-in-london-england" transform="translate(87.000000, 0.000000)">
                    <g id="Capa_1" transform="translate(57.000000, 0.000000)" fill="#FFFFFF">
                        <g id="Group">
                            <ellipse id="Oval" cx="20.2084211" cy="1.4835" rx="1.49368421" ry="1.4835"></ellipse>
                            <ellipse id="Oval" cx="20.2084211" cy="38.5319" rx="1.49136842" ry="1.4812"></ellipse>
                            <ellipse id="Oval" cx="1.55936842" cy="20.0054" rx="1.49136842" ry="1.4812"></ellipse>
                            <ellipse id="Oval" cx="38.8621053" cy="20.0077" rx="1.49368421" ry="1.4835"></ellipse>
                            <ellipse id="Oval" cx="3.13410526" cy="12.5557" rx="1.49368421" ry="1.4835"></ellipse>
                            <path d="M37.2850526,28.9409 C38.1074337,28.9409 38.7741053,28.2787739 38.7741053,27.462 C38.7741053,26.6452261 38.1074337,25.9831 37.2850526,25.9831 C36.4626716,25.9831 35.796,26.6452261 35.796,27.462 C35.796,28.2787739 36.4626716,28.9409 37.2850526,28.9409 Z" id="Oval"></path>
                            <ellipse id="Oval" cx="6.99915789" cy="6.9322" rx="1.49368421" ry="1.4835"></ellipse>
                            <ellipse id="Oval" cx="33.4246316" cy="33.0809" rx="1.49136842" ry="1.4812"></ellipse>
                            <ellipse id="Oval" cx="12.8187368" cy="2.9969" rx="1.48905263" ry="1.4789"></ellipse>
                            <ellipse id="Oval" cx="27.6004211" cy="37.0162" rx="1.49368421" ry="1.4835"></ellipse>
                            <ellipse id="Oval" cx="27.788" cy="3.0797" rx="1.49136842" ry="1.4812"></ellipse>
                            <ellipse id="Oval" cx="12.6357895" cy="36.9334" rx="1.49368421" ry="1.4835"></ellipse>
                            <ellipse id="Oval" cx="33.2277895" cy="6.739" rx="1.49368421" ry="1.4835"></ellipse>
                            <ellipse id="Oval" cx="7.19831579" cy="33.2764" rx="1.49368421" ry="1.4835"></ellipse>
                            <ellipse id="Oval" cx="37.2526316" cy="12.4752" rx="1.49136842" ry="1.4812"></ellipse>
                            <ellipse id="Oval" cx="3.17578947" cy="27.5379" rx="1.49368421" ry="1.4835"></ellipse>
                            <path d="M23.9808421,35.4154 C26.7644211,34.7323 29.3233684,33.327 31.4006316,31.2616 C37.6115789,25.0953 37.6115789,15.0696 31.4006316,8.9056 C28.4016842,5.9225 24.4046316,4.278 20.1505263,4.278 C15.9010526,4.278 11.9016842,5.9225 8.89810526,8.9079 C5.88989474,11.8933 4.23178947,15.8631 4.23178947,20.0859 C4.23178947,24.3087 5.88757895,28.2785 8.89810526,31.2616 C10.9730526,33.3247 13.5296842,34.7277 16.3086316,35.4154 L14.9562105,41.8209 L7.89305263,41.8209 L7.89305263,44.1209 L32.4821053,44.1209 L32.4821053,41.8209 L25.3378947,41.8209 L23.9808421,35.4154 L23.9808421,35.4154 Z M23.5848421,33.534 L23.3,32.1885 C23.8882105,32.0436 24.4717895,31.8849 25.0275789,31.6572 L25.5856842,32.9153 C24.9442105,33.1821 24.2610526,33.3615 23.5848421,33.534 L23.5848421,33.534 Z M21.3362105,20.3458 C21.3362105,20.3389 21.3385263,20.332 21.3385263,20.3228 L31.8105263,20.3228 C31.8035789,20.6402 31.7896842,20.9553 31.7618947,21.2635 C31.7572632,21.3141 31.7456842,21.3647 31.7364211,21.4153 C31.6947368,21.7557 31.6507368,22.0892 31.5835789,22.4204 C31.5812632,22.4296 31.5789474,22.4365 31.5766316,22.4434 C31.4284211,23.1702 31.2061053,23.8763 30.9212632,24.5479 L21.3362105,20.3458 L21.3362105,20.3458 Z M30.7174737,24.9711 C30.1732632,26.1303 29.4461053,27.186 28.5614737,28.0968 L21.2227368,20.815 L30.7174737,24.9711 L30.7174737,24.9711 Z M21.3408421,19.8467 C21.3408421,19.8375 21.3385263,19.8306 21.3385263,19.8214 L30.9212632,15.6262 C31.1945263,16.2748 31.4075789,16.9533 31.5581053,17.6571 C31.5650526,17.6939 31.5766316,17.7238 31.5835789,17.7583 C31.6484211,18.0665 31.6901053,18.3793 31.7294737,18.6944 C31.7387368,18.7657 31.7572632,18.8393 31.7642105,18.9152 C31.7943158,19.2211 31.8082105,19.5362 31.8128421,19.849 L21.3408421,19.849 L21.3408421,19.8467 L21.3408421,19.8467 Z M21.2227368,19.3545 L28.5614737,12.0658 C29.4461053,12.9812 30.1709474,14.0369 30.7174737,15.1961 L21.2227368,19.3545 L21.2227368,19.3545 Z M20.8753684,19.0256 L25.0669474,9.5887 C26.2364211,10.1315 27.2970526,10.856 28.2187368,11.7323 L20.8753684,19.0256 L20.8753684,19.0256 Z M28.2233684,28.4395 C27.304,29.3135 26.2410526,30.038 25.0715789,30.5808 L21.0351579,21.4935 L20.9865263,21.2497 L28.2233684,28.4395 L28.2233684,28.4395 Z M24.6385263,30.7832 C24.1475789,30.9879 23.6242105,31.119 23.1008421,31.257 L21.5168421,23.7521 L24.6385263,30.7832 L24.6385263,30.7832 Z M26.0141053,32.7083 L25.4583158,31.4525 C26.7111579,30.8752 27.876,30.0886 28.8972632,29.1111 L29.8745263,30.0817 C28.7282105,31.188 27.4221053,32.0597 26.0141053,32.7083 L26.0141053,32.7083 Z M30.2126316,29.7459 L29.2330526,28.7753 C30.2218947,27.761 31.0092632,26.6064 31.5928421,25.3552 L32.8503158,25.9072 C32.2111579,27.2918 31.3381053,28.5936 30.2126316,29.7459 L30.2126316,29.7459 Z M33.0517895,25.4748 L31.8012632,24.9274 C32.1138947,24.1822 32.3477895,23.4071 32.5145263,22.6113 C32.5145263,22.6113 32.5145263,22.6113 32.5145263,22.609 C32.5886316,22.2479 32.6418947,21.8822 32.6858947,21.5165 C32.6905263,21.4636 32.7021053,21.4084 32.7067368,21.3578 C32.7437895,21.0151 32.7553684,20.6678 32.76,20.3205 L34.1332632,20.3205 C34.1101053,22.08 33.7465263,23.8303 33.0517895,25.4748 L33.0517895,25.4748 Z M34.1355789,19.8467 L32.7623158,19.8467 C32.7553684,19.5017 32.7414737,19.1567 32.7090526,18.814 C32.7021053,18.7427 32.6882105,18.6714 32.6789474,18.6024 C32.6326316,18.2551 32.5886316,17.9078 32.5191579,17.5651 C32.5122105,17.5421 32.5052632,17.5191 32.5006316,17.4961 C32.3385263,16.721 32.1023158,15.9643 31.7943158,15.2398 L33.0517895,14.6901 C33.7465263,16.3415 34.1101053,18.0872 34.1355789,19.8467 L34.1355789,19.8467 Z M32.8503158,14.2623 L31.5951579,14.812 C31.0115789,13.5654 30.2195789,12.4108 29.2330526,11.3942 L30.2126316,10.4236 C31.3357895,11.5782 32.2111579,12.88 32.8503158,14.2623 L32.8503158,14.2623 Z M29.8745263,10.0878 L28.8972632,11.0584 C27.8736842,10.0786 26.7111579,9.2943 25.4536842,8.7124 L26.0071579,7.4566 C27.4221053,8.1052 28.7282105,8.9861 29.8745263,10.0878 L29.8745263,10.0878 Z M20.3867368,6.1847 C22.1976842,6.2169 23.9553684,6.578 25.5787368,7.2565 L25.0252632,8.5123 C24.3004211,8.2087 23.5431579,7.981 22.7650526,7.82 C22.7372632,7.8131 22.7141053,7.8039 22.684,7.7993 C22.3458947,7.7303 22.0031579,7.6843 21.6557895,7.6429 C21.5793684,7.6337 21.5052632,7.6153 21.4265263,7.6084 C21.0791579,7.5716 20.7294737,7.5578 20.3844211,7.5532 L20.3867368,6.1847 L20.3867368,6.1847 L20.3867368,6.1847 Z M20.3867368,8.5054 C20.7063158,8.51 21.0189474,8.5169 21.3292632,8.5537 C21.408,8.5606 21.4774737,8.579 21.5631579,8.5905 C21.8757895,8.6273 22.1884211,8.6687 22.4941053,8.7308 C22.5218947,8.7354 22.5496842,8.7469 22.5844211,8.7538 C23.2953684,8.9033 23.9808421,9.1172 24.6338947,9.3909 L20.4098947,18.906 C20.4029474,18.9037 20.3936842,18.9014 20.3867368,18.9014 L20.3867368,8.5054 L20.3867368,8.5054 Z M20.3867368,24.0511 L21.9591579,31.487 C21.4404211,31.5698 20.924,31.6549 20.3867368,31.6641 L20.3867368,24.0511 L20.3867368,24.0511 Z M20.3867368,32.614 C20.9888421,32.6048 21.5747368,32.5082 22.156,32.4185 L22.4385263,33.7617 C21.7646316,33.8698 21.0837895,33.9779 20.3867368,33.9871 L20.3867368,32.614 L20.3867368,32.614 Z M19.9073684,6.1847 L19.9073684,7.5555 C19.5623158,7.5601 19.2126316,7.5739 18.8652632,7.6084 C18.8189474,7.6153 18.7703158,7.6245 18.7216842,7.6291 C17.5290526,7.7625 16.3642105,8.0546 15.2757895,8.5123 L14.7153684,7.2588 C16.3410526,6.5826 18.0941053,6.2146 19.9073684,6.1847 L19.9073684,6.1847 Z M19.076,19.3545 L9.58126316,15.1984 C10.1277895,14.0369 10.8595789,12.9835 11.7372632,12.0681 L19.076,19.3545 L19.076,19.3545 Z M12.0753684,11.7323 C12.9970526,10.856 14.06,10.1315 15.2294737,9.5887 L19.4187368,19.0187 L12.0753684,11.7323 L12.0753684,11.7323 Z M18.9625263,19.826 C18.9602105,19.8329 18.9602105,19.8421 18.9602105,19.849 L8.49284211,19.849 C8.49515789,19.5339 8.50442105,19.2188 8.53684211,18.9083 C8.54147368,18.8554 8.55536842,18.8071 8.56231579,18.7542 C8.68968421,17.6594 8.96294737,16.606 9.37747368,15.6262 L18.9625263,19.826 L18.9625263,19.826 Z M18.9602105,20.3205 C18.9602105,20.3297 18.9625263,20.3366 18.9625263,20.3435 L9.37747368,24.5433 C9.09726316,23.8717 8.87726316,23.1771 8.72442105,22.4526 C8.72210526,22.4388 8.71747368,22.4296 8.71515789,22.4181 C8.648,22.0984 8.604,21.7787 8.56926316,21.4544 C8.56231579,21.3877 8.54610526,21.3233 8.53915789,21.2566 C8.50442105,20.9507 8.49515789,20.6356 8.49052632,20.3205 L18.9602105,20.3205 L18.9602105,20.3205 Z M19.076,20.815 L11.7372632,28.1014 C10.8572632,27.1906 10.1254737,26.1349 9.57894737,24.9757 L19.076,20.815 L19.076,20.815 Z M19.3006316,21.2658 L19.2427368,21.5395 L15.2317895,30.5808 C14.06,30.0403 13.0016842,29.3112 12.08,28.4395 L19.3006316,21.2658 L19.3006316,21.2658 Z M18.768,23.7774 L17.1886316,31.2524 C16.6652632,31.1167 16.1442105,30.9856 15.6578947,30.7832 L18.768,23.7774 L18.768,23.7774 Z M18.1334737,32.4185 C18.7193684,32.5105 19.3075789,32.6048 19.9073684,32.6163 L19.9073684,33.9871 C19.208,33.9779 18.5271579,33.8675 17.8486316,33.7594 L18.1334737,32.4185 L18.1334737,32.4185 Z M18.328,31.4847 L19.9073684,24.0212 L19.9073684,31.6641 C19.3701053,31.6549 18.8490526,31.5675 18.328,31.4847 L18.328,31.4847 Z M19.8865263,18.906 L15.6602105,9.3886 C16.6536842,8.9746 17.7143158,8.6986 18.8258947,8.5744 C18.8745263,8.5698 18.9208421,8.5606 18.9694737,8.5537 C19.2751579,8.5215 19.5947368,8.5123 19.9073684,8.5054 L19.9073684,18.9014 C19.9004211,18.9037 19.8934737,18.9037 19.8865263,18.906 L19.8865263,18.906 Z M14.2846316,7.4635 L14.8427368,8.717 C13.5852632,9.2966 12.4250526,10.0786 11.3991579,11.063 L10.4242105,10.0878 C11.5705263,8.9861 12.8743158,8.1052 14.2846316,7.4635 L14.2846316,7.4635 Z M10.0861053,10.4259 L11.0610526,11.3965 C10.0745263,12.4154 9.28252632,13.5654 8.69894737,14.8143 L7.43915789,14.2623 C8.09221053,12.857 8.97452632,11.5621 10.0861053,10.4259 L10.0861053,10.4259 Z M7.23768421,14.6878 L8.49978947,15.2398 C8.18947368,15.9781 7.95094737,16.7509 7.78652632,17.5398 C7.78652632,17.5467 7.78421053,17.5536 7.78189474,17.5605 C7.70778947,17.9193 7.65452632,18.2804 7.61284211,18.6438 C7.60821053,18.699 7.59431579,18.7542 7.58968421,18.8117 C7.55263158,19.1544 7.54105263,19.4971 7.53642105,19.8467 L6.15389474,19.8467 C6.18168421,18.0458 6.54989474,16.3024 7.23768421,14.6878 L7.23768421,14.6878 Z M6.15389474,20.3205 L7.53410526,20.3205 C7.54105263,20.6678 7.55031579,21.0128 7.58736842,21.3555 C7.59663158,21.4245 7.61052632,21.4958 7.62210526,21.5671 C7.65915789,21.9167 7.71010526,22.2594 7.77726316,22.6044 C7.78421053,22.6274 7.79115789,22.6504 7.79347368,22.6688 C7.96021053,23.4439 8.19410526,24.2029 8.49747368,24.9251 L7.23536842,25.4771 C6.54989474,23.8625 6.18168421,22.1237 6.15389474,20.3205 L6.15389474,20.3205 Z M7.44147368,25.9118 L8.70357895,25.3575 C9.28715789,26.6064 10.0745263,27.761 11.0633684,28.7776 L10.0861053,29.7482 C8.97452632,28.6074 8.09221053,27.3125 7.44147368,25.9118 L7.44147368,25.9118 Z M10.4242105,30.0817 L11.3991579,29.1111 C12.4227368,30.0886 13.5829474,30.8729 14.8404211,31.4502 L14.2846316,32.706 C12.8743158,32.0597 11.5705263,31.1857 10.4242105,30.0817 L10.4242105,30.0817 Z M14.7153684,32.9107 L15.2734737,31.6526 C15.8246316,31.8849 16.4105263,32.0367 16.9917895,32.1816 L16.7069474,33.5271 C16.0307368,33.3592 15.3545263,33.1775 14.7153684,32.9107 L14.7153684,32.9107 Z M16.1442105,41.8209 L17.4503158,35.65 C18.3326316,35.7995 19.2357895,35.8915 20.1528421,35.8915 C21.0652632,35.8915 21.9614737,35.7995 22.8414737,35.6523 L24.1452632,41.8209 L16.1442105,41.8209 L16.1442105,41.8209 Z" id="Shape"></path>
                        </g>
                    </g>
                    <path d="M0.5,43.5 L154.529221,43.5" id="Line" stroke="#FFFFFF" stroke-linecap="square"></path>
                </g>
            </g>
        </g>
    </g>
</svg>
